<svg width="321" height="40" viewBox="0 0 321 40" fill="none" xmlns="http://www.w3.org/2000/svg">
<rect x="0.238647" width="320.415" height="39.8284" rx="7.91419" fill="#968468" fill-opacity="0.25"/>
<path d="M52.9999 19.2546V23.2117M59.5951 19.9141C59.5951 23.5565 56.6424 26.5093 52.9999 26.5093C49.3575 26.5093 46.4048 23.5565 46.4048 19.9141C46.4048 16.2717 49.3575 13.319 52.9999 13.319C56.6424 13.319 59.5951 16.2717 59.5951 19.9141Z" stroke="#AF9979" stroke-width="0.989274" stroke-linecap="round"/>
<path d="M53.6595 17.2762C53.6595 17.6405 53.3642 17.9357 53 17.9357C52.6357 17.9357 52.3405 17.6405 52.3405 17.2762C52.3405 16.912 52.6357 16.6167 53 16.6167C53.3642 16.6167 53.6595 16.912 53.6595 17.2762Z" fill="#AF9979"/>
<path d="M74.9976 26.1092C72.1371 26.1092 70.4305 24.0938 70.4305 20.3068C70.4305 16.5198 72.1371 14.3744 74.9976 14.3744C76.883 14.3744 78.1833 15.2846 78.8984 16.8611L77.7932 17.5275C77.3381 16.3573 76.3954 15.5934 74.9976 15.5934C73.0472 15.5934 71.8933 17.1374 71.8933 19.4617V21.152C71.8933 23.4762 73.0472 24.8902 74.9976 24.8902C76.4442 24.8902 77.4356 24.0776 77.8907 22.8423L78.9797 23.525C78.2645 25.1178 76.883 26.1092 74.9976 26.1092ZM91.0248 25.9142H84.8324V14.5694H86.1976V24.7114H91.0248V25.9142ZM100.728 25.9142H96.1767V24.7765H97.7695V15.7072H96.1767V14.5694H100.728V15.7072H99.1348V24.7765H100.728V25.9142ZM113.704 27.442V28.5797H112.03C111.136 28.5797 110.665 28.0108 110.665 27.2469V26.093C108.048 25.8492 106.39 23.8013 106.39 20.2418C106.39 16.4386 108.275 14.3744 111.201 14.3744C114.127 14.3744 116.012 16.4386 116.012 20.2418C116.012 23.7037 114.452 25.7191 111.965 26.0605V27.442H113.704ZM111.201 24.8902C113.168 24.8902 114.549 23.4274 114.549 21.1845V19.2991C114.549 17.0562 113.168 15.5934 111.201 15.5934C109.234 15.5934 107.853 17.0562 107.853 19.2991V21.1845C107.853 23.4274 109.234 24.8902 111.201 24.8902ZM122.123 14.5694H123.489V21.5908C123.489 23.7525 124.187 24.8902 126.203 24.8902C128.218 24.8902 128.917 23.7525 128.917 21.5908V14.5694H130.282V21.2658C130.282 24.5652 129.177 26.1092 126.154 26.1092C123.131 26.1092 122.123 24.5652 122.123 21.2658V14.5694ZM143.882 25.9142H136.958V14.5694H143.882V15.7722H138.323V19.5754H143.557V20.7782H138.323V24.7114H143.882V25.9142ZM164.675 25.9142H157.752V14.5694H164.675V15.7722H159.117V19.5754H164.35V20.7782H159.117V24.7114H164.675V25.9142ZM182.543 26.1092C179.683 26.1092 177.976 24.0938 177.976 20.3068C177.976 16.5198 179.683 14.3744 182.543 14.3744C184.428 14.3744 185.729 15.2846 186.444 16.8611L185.339 17.5275C184.884 16.3573 183.941 15.5934 182.543 15.5934C180.593 15.5934 179.439 17.1374 179.439 19.4617V21.152C179.439 23.4762 180.593 24.8902 182.543 24.8902C183.99 24.8902 184.981 24.0776 185.436 22.8423L186.525 23.525C185.81 25.1178 184.428 26.1092 182.543 26.1092ZM196.414 26.1092C193.488 26.1092 191.603 24.0451 191.603 20.2418C191.603 16.4386 193.488 14.3744 196.414 14.3744C199.339 14.3744 201.225 16.4386 201.225 20.2418C201.225 24.0451 199.339 26.1092 196.414 26.1092ZM196.414 24.8902C198.38 24.8902 199.762 23.4274 199.762 21.1845V19.2991C199.762 17.0562 198.38 15.5934 196.414 15.5934C194.447 15.5934 193.065 17.0562 193.065 19.2991V21.1845C193.065 23.4274 194.447 24.8902 196.414 24.8902ZM214.309 25.9142L210.164 18.9903L208.799 16.4711H208.75V25.9142H207.417V14.5694H208.994L213.138 21.4933L214.504 24.0126H214.552V14.5694H215.885V25.9142H214.309ZM229.75 25.9142V20.7782H224.012V25.9142H222.647V14.5694H224.012V19.5754H229.75V14.5694H231.115V25.9142H229.75ZM244.801 25.9142H237.877V14.5694H244.801V15.7722H239.242V19.5754H244.475V20.7782H239.242V24.7114H244.801V25.9142ZM255.089 15.5934C253.139 15.5934 251.985 17.1374 251.985 19.4617V21.152C251.985 23.4762 253.139 24.8902 255.089 24.8902C256.535 24.8902 257.527 24.0776 257.982 22.8423L259.071 23.525C258.405 25.0203 257.153 25.9792 255.447 26.093L255.284 26.9056L255.333 26.9544C255.544 26.8894 255.772 26.8569 255.967 26.8569C256.601 26.8569 257.072 27.2307 257.072 27.9296C257.072 28.856 256.227 29.2786 255.268 29.2786C254.39 29.2786 253.886 28.921 253.659 28.6122L254.276 27.9458C254.471 28.1896 254.796 28.4009 255.268 28.4009C255.674 28.4009 255.983 28.2384 255.983 27.8971C255.983 27.6045 255.788 27.3607 254.878 27.2307L254.423 27.1657L254.634 26.093C252.05 25.8979 250.522 23.8988 250.522 20.3068C250.522 16.5198 252.228 14.3744 255.089 14.3744C256.974 14.3744 258.275 15.2846 258.99 16.8611L257.885 17.5275C257.429 16.3573 256.487 15.5934 255.089 15.5934ZM273.457 25.9142H272.026L270.889 22.566H266.305L265.167 25.9142H263.786L267.752 14.5694H269.491L273.457 25.9142ZM270.547 21.3633L268.629 15.8372H268.548L266.63 21.3633H270.547Z" fill="#AF9979"/>
</svg>
