<?xml version="1.0" encoding="utf-8"?>
<!-- Generator: Adobe Illustrator 27.9.3, SVG Export Plug-In . SVG Version: 9.03 Build 53313)  -->
<svg version="1.1" id="Camada_1" xmlns="http://www.w3.org/2000/svg" xmlns:xlink="http://www.w3.org/1999/xlink" x="0px" y="0px"
	 viewBox="0 0 28.3 28.3" style="enable-background:new 0 0 28.3 28.3;" xml:space="preserve">
<style type="text/css">
	.st0{fill:#F2F2F2;}
</style>
<path class="st0" d="M9.5,14.2c0-2.6,2.1-4.7,4.7-4.7s4.7,2.1,4.7,4.7s-2.1,4.7-4.7,4.7S9.5,16.8,9.5,14.2z M7,14.2
	c0,4,3.3,7.3,7.3,7.3c4,0,7.3-3.3,7.3-7.3s-3.3-7.3-7.3-7.3C10.2,6.9,7,10.2,7,14.2z M20.1,6.6c0,0.3,0.1,0.7,0.3,0.9
	c0.2,0.3,0.5,0.5,0.8,0.6c0.3,0.1,0.7,0.2,1,0.1C22.5,8.2,22.8,8,23,7.8c0.2-0.2,0.4-0.5,0.5-0.9c0.1-0.3,0-0.7-0.1-1
	c-0.1-0.3-0.3-0.6-0.6-0.8c-0.3-0.2-0.6-0.3-0.9-0.3h0c-0.5,0-0.9,0.2-1.2,0.5C20.3,5.7,20.1,6.2,20.1,6.6z M8.5,25.7
	c-1.4-0.1-2.1-0.3-2.6-0.5c-0.7-0.3-1.1-0.6-1.6-1.1c-0.5-0.5-0.8-1-1.1-1.6C3,22,2.8,21.3,2.7,19.9c-0.1-1.5-0.1-1.9-0.1-5.7
	s0-4.2,0.1-5.7C2.8,7.1,3,6.3,3.2,5.8c0.3-0.7,0.6-1.1,1.1-1.6c0.5-0.5,1-0.8,1.6-1.1c0.5-0.2,1.3-0.4,2.6-0.5
	c1.5-0.1,1.9-0.1,5.7-0.1c3.8,0,4.2,0,5.7,0.1c1.4,0.1,2.1,0.3,2.6,0.5c0.7,0.3,1.1,0.6,1.6,1.1c0.5,0.5,0.8,1,1.1,1.6
	c0.2,0.5,0.4,1.3,0.5,2.6c0.1,1.5,0.1,1.9,0.1,5.7s0,4.2-0.1,5.7c-0.1,1.4-0.3,2.1-0.5,2.6c-0.3,0.7-0.6,1.1-1.1,1.6
	c-0.5,0.5-1,0.8-1.6,1.1c-0.5,0.2-1.3,0.4-2.6,0.5c-1.5,0.1-1.9,0.1-5.7,0.1S10,25.8,8.5,25.7z M8.4,0.1C6.9,0.2,5.9,0.4,5,0.7
	C4,1.1,3.3,1.6,2.5,2.4C1.7,3.2,1.2,4,0.8,4.9C0.5,5.8,0.2,6.8,0.2,8.3c-0.1,1.5-0.1,2-0.1,5.8s0,4.3,0.1,5.8
	c0.1,1.5,0.3,2.5,0.7,3.4c0.4,0.9,0.8,1.7,1.6,2.5C3.3,26.8,4,27.2,5,27.6c0.9,0.4,1.9,0.6,3.4,0.7c1.5,0.1,2,0.1,5.8,0.1
	c3.9,0,4.3,0,5.8-0.1c1.5-0.1,2.5-0.3,3.4-0.7c0.9-0.4,1.7-0.8,2.5-1.6c0.8-0.8,1.3-1.6,1.6-2.5c0.4-0.9,0.6-1.9,0.7-3.4
	c0.1-1.5,0.1-2,0.1-5.8s0-4.3-0.1-5.8c-0.1-1.5-0.3-2.5-0.7-3.4c-0.4-0.9-0.8-1.7-1.6-2.5c-0.8-0.8-1.6-1.3-2.5-1.6
	c-0.9-0.4-1.9-0.6-3.4-0.7C18.6,0,18.1,0,14.3,0C10.4,0,9.9,0,8.4,0.1z"/>
</svg>
