<svg width="28" height="14" viewBox="0 0 28 14" fill="none" xmlns="http://www.w3.org/2000/svg">
<path d="M26.9096 3.56528C27.59 2.87882 27.585 1.77079 26.8986 1.09043C26.2121 0.410067 25.1041 0.415011 24.4237 1.10147L20.3467 5.21506C18.692 6.88455 17.5532 8.02975 16.5883 8.80466C15.651 9.55739 15.049 9.81562 14.5098 9.88434C14.1713 9.9275 13.8287 9.9275 13.4901 9.88434C12.951 9.81562 12.3489 9.55739 11.4116 8.80466C10.4467 8.02976 9.30797 6.88455 7.65331 5.21507L3.57626 1.10147C2.8959 0.415012 1.78787 0.410069 1.10141 1.09043C0.41495 1.77079 0.410006 2.87882 1.09037 3.56528L5.24087 7.75298C6.80407 9.33025 8.08168 10.6194 9.22005 11.5336C10.4038 12.4842 11.6053 13.1724 13.0476 13.3563C13.68 13.4369 14.32 13.4369 14.9524 13.3563C16.3946 13.1724 17.5962 12.4842 18.7799 11.5336C19.9183 10.6194 21.1959 9.33026 22.7591 7.75299L26.9096 3.56528Z" fill="#AF9979"/>
</svg>
